<svg width="36" height="36" viewBox="0 0 36 36" fill="none" xmlns="http://www.w3.org/2000/svg">
<path d="M27.5748 26.7731H8.70225V15.1875C8.70225 10.7315 12.8962 7.16665 18.1385 7.16665C23.3809 7.16665 27.5748 10.7315 27.5748 15.1875V26.7731ZM31.7687 24.9907V15.1875C31.7687 9.71549 27.2812 5.1347 21.284 3.92267V2.71063C21.284 2.00154 20.9526 1.3215 20.3627 0.8201C19.7728 0.318701 18.9727 0.0370178 18.1385 0.0370178C17.3043 0.0370178 16.5043 0.318701 15.9144 0.8201C15.3245 1.3215 14.9931 2.00154 14.9931 2.71063V3.92267C8.97486 5.1347 4.50835 9.71549 4.50835 15.1875V24.9907L0.314453 28.5555V30.3379H35.9626V28.5555L31.7687 24.9907ZM18.1385 35.6852C19.2508 35.6852 20.3176 35.3096 21.1041 34.6411C21.8906 33.9725 22.3324 33.0658 22.3324 32.1203H13.9446C13.9446 33.0658 14.3865 33.9725 15.173 34.6411C15.9595 35.3096 17.0262 35.6852 18.1385 35.6852Z" fill="white"/>
</svg>
