<svg width="41" height="42" viewBox="0 0 41 42" fill="none" xmlns="http://www.w3.org/2000/svg">
<path d="M7.3686 0.754395C3.28672 0.754395 0 4.04111 0 8.12299V33.7409C0 37.8228 3.28672 41.1095 7.3686 41.1095H21.2533V25.3332H17.0816V19.6532H21.2533V14.8005C21.2533 10.988 23.7181 7.4874 29.3962 7.4874C31.6951 7.4874 33.3951 7.7081 33.3951 7.7081L33.2614 13.0123C33.2614 13.0123 31.5277 12.9959 29.6358 12.9959C27.5882 12.9959 27.2599 13.9393 27.2599 15.5055V19.6532H33.4241L33.1555 25.3332H27.2599V41.1096H32.9865C37.0684 41.1096 40.3551 37.8228 40.3551 33.741V8.12303C40.3551 4.04116 37.0684 0.754435 32.9865 0.754435H7.36856L7.3686 0.754395Z" fill="#0072B1"/>
</svg>
