<svg width="42" height="42" viewBox="0 0 42 42" fill="none" xmlns="http://www.w3.org/2000/svg">
<path d="M35.4565 35.6372H29.3905V26.1374C29.3905 23.8721 29.35 20.9559 26.2356 20.9559C23.0762 20.9559 22.5927 23.4242 22.5927 25.9725V35.6366H16.5269V16.1012H22.3501V18.7709H22.4317C23.0144 17.7745 23.8566 16.9547 24.8684 16.399C25.8802 15.8433 27.0238 15.5724 28.1773 15.6152C34.3255 15.6152 35.459 19.6593 35.459 24.9204L35.4565 35.6372ZM9.68223 13.431C7.73806 13.4313 6.16171 11.8554 6.16139 9.91128C6.16107 7.96711 7.73678 6.39077 9.68095 6.39045C11.6251 6.38997 13.2015 7.96583 13.2018 9.91C13.202 10.8436 12.8312 11.7391 12.1712 12.3994C11.5112 13.0597 10.6159 13.4308 9.68223 13.431ZM12.7153 35.6374H6.64292V16.1012H12.7151V35.6372L12.7153 35.6374ZM38.4806 0.756886H3.59481C1.94602 0.738335 0.593881 2.05913 0.57373 3.70792V38.7392C0.593241 40.3888 1.94522 41.7109 3.59465 41.6936H38.4806C40.1336 41.7141 41.4908 40.392 41.5137 38.7392V3.7052C41.4902 2.05321 40.1328 0.732578 38.4806 0.754167" fill="#0A66C2"/>
</svg>
