<svg width="44" height="44" viewBox="0 0 44 44" fill="none" xmlns="http://www.w3.org/2000/svg">
<path d="M39.3002 0H4.83548C2.24083 0 0.135742 2.10509 0.135742 4.69974V39.1645C0.135742 41.7591 2.24083 43.8642 4.83548 43.8642H39.3002C41.8949 43.8642 44 41.7591 44 39.1645V4.69974C44 2.10509 41.8949 0 39.3002 0ZM34.5124 15.5483C34.532 15.8225 34.532 16.1064 34.532 16.3805C34.532 24.8695 28.0698 34.6508 16.2617 34.6508C12.6194 34.6508 9.24149 33.5933 6.40206 31.7722C6.92099 31.8309 7.42034 31.8505 7.94906 31.8505C10.9549 31.8505 13.716 30.8322 15.919 29.109C13.0992 29.0503 10.7297 27.1997 9.91707 24.654C10.906 24.8009 11.797 24.8009 12.8152 24.5366C9.87791 23.9393 7.67491 21.3544 7.67491 18.2311V18.1527C8.52673 18.6325 9.52543 18.9262 10.5731 18.9654C9.6923 18.3795 8.97025 17.5847 8.47139 16.6519C7.97252 15.7191 7.71234 14.6773 7.71407 13.6195C7.71407 12.4249 8.02739 11.3283 8.58548 10.3786C11.748 14.2755 16.4967 16.8211 21.8231 17.0953C20.9125 12.7383 24.1729 9.20366 28.0894 9.20366C29.9399 9.20366 31.6044 9.97715 32.7793 11.2304C34.2284 10.9563 35.6188 10.4178 36.8525 9.68342C36.3727 11.1717 35.3642 12.4249 34.0326 13.218C35.325 13.0809 36.5783 12.7187 37.7337 12.2193C36.8622 13.502 35.7656 14.6377 34.5124 15.5483Z" fill="#0A66C2"/>
</svg>
